<svg xmlns="http://www.w3.org/2000/svg" xmlns:xlink="http://www.w3.org/1999/xlink" width="500" zoomAndPan="magnify" viewBox="0 0 375 112.499997" height="150" preserveAspectRatio="xMidYMid meet" version="1.0"><defs><g/><clipPath id="1b970320f8"><path d="M 0.828125 0 L 374.167969 0 L 374.167969 112.003906 L 0.828125 112.003906 Z M 0.828125 0 " clip-rule="nonzero"/></clipPath><clipPath id="39e5ad02c6"><path d="M 21 19 L 111 19 L 111 92 L 21 92 Z M 21 19 " clip-rule="nonzero"/></clipPath><clipPath id="e5bab22854"><path d="M 24.996094 16.617188 L 111.519531 20.570312 L 108.113281 95.160156 L 21.585938 91.207031 Z M 24.996094 16.617188 " clip-rule="nonzero"/></clipPath><clipPath id="9293703d5c"><path d="M 24.996094 16.617188 L 111.519531 20.570312 L 108.113281 95.160156 L 21.585938 91.207031 Z M 24.996094 16.617188 " clip-rule="nonzero"/></clipPath></defs><g clip-path="url(#1b970320f8)"><path fill="#ffffff" d="M 0.828125 0 L 374.171875 0 L 374.171875 112.003906 L 0.828125 112.003906 Z M 0.828125 0 " fill-opacity="1" fill-rule="nonzero"/><path fill="#ffffff" d="M 0.828125 0 L 374.171875 0 L 374.171875 112.003906 L 0.828125 112.003906 Z M 0.828125 0 " fill-opacity="1" fill-rule="nonzero"/></g><g clip-path="url(#39e5ad02c6)"><g clip-path="url(#e5bab22854)"><g clip-path="url(#9293703d5c)"><path fill="#160633" d="M 108.59375 55.28125 C 107.761719 56.925781 106.574219 58.417969 105.425781 59.863281 C 103.535156 62.238281 101.75 64.480469 101.40625 67.332031 C 101.164062 69.351562 101.707031 71.292969 102.277344 73.34375 C 102.613281 74.546875 102.960938 75.789062 103.128906 77.039062 C 103.683594 81.179688 102.167969 85.5625 99.175781 88.476562 L 99.113281 88.539062 L 99.023438 88.53125 C 97.949219 88.457031 96.53125 87.828125 94.804688 86.660156 C 93.75 85.949219 92.175781 85.367188 90.789062 84.851562 C 90.414062 84.714844 90.058594 84.582031 89.730469 84.453125 L 89.648438 84.421875 L 89.617188 84.339844 C 89.09375 82.945312 88.964844 81.796875 89.21875 80.824219 C 89.28125 80.578125 89.371094 80.339844 89.457031 80.109375 C 89.617188 79.679688 89.769531 79.273438 89.765625 78.847656 C 89.753906 77.988281 89.496094 77.183594 89.21875 76.332031 C 89.050781 75.800781 88.871094 75.25 88.761719 74.6875 C 88.492188 73.308594 89.402344 72.199219 90.28125 71.128906 C 90.945312 70.316406 91.632812 69.480469 91.828125 68.523438 C 92.105469 67.144531 91.457031 65.789062 90.773438 64.351562 C 90.097656 62.941406 89.402344 61.484375 89.667969 59.996094 L 89.703125 59.785156 L 89.910156 59.839844 C 91.097656 60.148438 91.542969 60.261719 92.660156 59.582031 C 93.734375 58.925781 94.851562 57.496094 95.257812 56.257812 C 95.757812 54.738281 96.335938 52.539062 95.589844 50.984375 C 95.269531 50.3125 94.949219 49.898438 94.628906 49.757812 C 94.039062 49.492188 93.140625 49.394531 92.570312 49.722656 C 91.550781 50.300781 90.75 51.761719 90.40625 52.953125 L 90.351562 53.144531 L 90.160156 53.085938 C 88.613281 52.625 87.046875 50.847656 86.816406 49.289062 C 86.585938 47.757812 86.496094 46.898438 87.058594 45.523438 C 87.15625 45.285156 87.261719 45.046875 87.363281 44.808594 C 87.699219 44.042969 88.042969 43.253906 88.1875 42.433594 C 88.28125 41.886719 88.308594 41.121094 87.882812 40.574219 C 87.351562 39.890625 86.34375 40.03125 85.367188 40.164062 C 85.21875 40.1875 85.074219 40.207031 84.929688 40.222656 L 84.667969 40.253906 L 84.710938 39.996094 C 84.839844 39.21875 84.929688 38.429688 85.019531 37.667969 C 85.089844 37.074219 85.15625 36.496094 85.238281 35.953125 C 85.355469 35.152344 85.257812 34.679688 84.929688 34.472656 C 84.492188 34.195312 83.859375 34.574219 83.457031 35.042969 C 83.304688 35.21875 83.128906 35.441406 82.9375 35.679688 C 82.398438 36.363281 81.785156 37.140625 81.222656 37.507812 C 79.425781 38.683594 78.421875 38.589844 76.417969 38.398438 L 76.015625 38.363281 C 74.601562 38.234375 73.207031 37.878906 71.855469 37.535156 C 71.058594 37.332031 70.230469 37.121094 69.414062 36.960938 C 67.460938 36.578125 65.246094 37.03125 64.867188 37.117188 C 64.664062 37.355469 63.511719 38.941406 63.273438 44.140625 L 63.289062 44.351562 C 63 47.886719 63.488281 49.949219 63.710938 50.671875 L 63.738281 50.761719 L 63.6875 50.839844 C 62.894531 52.03125 62.433594 53.574219 62.355469 55.304688 C 62.277344 56.9375 62.527344 58.5625 62.804688 60.074219 C 63.007812 61.160156 63.292969 62.335938 63.703125 63.777344 C 63.824219 64.28125 63.941406 64.765625 64.054688 65.226562 C 64.203125 65.832031 64.339844 66.402344 64.460938 66.914062 C 64.597656 67.511719 64.863281 68.0625 65.246094 68.546875 C 65.386719 68.769531 65.554688 68.9375 65.761719 69.085938 C 66.386719 69.625 67.117188 69.957031 67.898438 70.0625 C 68.898438 70.195312 70.003906 70.257812 71.097656 70.234375 C 71.644531 70.28125 72.265625 70.3125 72.882812 70.214844 L 73.09375 70.179688 L 73.109375 70.390625 C 73.285156 72.65625 72.972656 74.976562 72.210938 77.101562 C 71.976562 77.753906 71.65625 78.492188 71.085938 79.03125 L 71.042969 79.070312 L 70.984375 79.082031 C 67.21875 79.78125 63.226562 79.28125 59.476562 78.640625 L 58.722656 78.511719 C 55.203125 77.902344 51.566406 77.273438 48.191406 78.363281 C 44.792969 79.457031 41.925781 82.074219 40.519531 85.355469 C 40.28125 85.910156 40.078125 86.5 39.882812 87.066406 C 39.484375 88.214844 39.074219 89.398438 38.355469 90.410156 C 37.421875 91.28125 36.308594 91.792969 35.105469 91.910156 C 34.769531 91.945312 34.429688 91.949219 34.101562 91.9375 C 33.28125 91.898438 32.5 91.734375 31.8125 91.566406 C 29.15625 90.917969 24.390625 89.183594 22.296875 84.894531 L 21.914062 84.105469 L 22.597656 84.652344 C 23.835938 85.648438 25.6875 85.9375 27.316406 85.390625 C 28.925781 84.851562 30.246094 83.511719 30.761719 81.890625 C 31.378906 79.953125 30.878906 77.972656 30.351562 75.875 C 29.914062 74.144531 29.460938 72.351562 29.695312 70.582031 C 30.007812 68.199219 31.582031 65.933594 34.007812 64.359375 C 36.179688 62.957031 38.746094 62.242188 41.195312 61.679688 L 41.726562 61.554688 C 43.683594 61.113281 45.707031 60.652344 47.371094 59.550781 C 50.070312 57.765625 51.445312 54.621094 52.617188 51.546875 C 50.785156 43.785156 53.941406 36.9375 57.847656 34.425781 C 59.878906 33.121094 61.269531 31.371094 62.742188 29.515625 C 63.472656 28.601562 64.222656 27.652344 65.054688 26.773438 C 67.429688 24.261719 70.4375 22.328125 73.757812 21.1875 C 77.003906 20.070312 80.382812 20.050781 83.652344 20.035156 C 85.429688 20.023438 87.269531 20.011719 89.074219 19.828125 C 89.941406 19.738281 90.785156 19.683594 91.570312 19.980469 C 92.199219 20.21875 92.710938 20.65625 93.132812 21.054688 C 94.652344 22.5 95.835938 24.289062 96.570312 26.25 C 97.878906 24.859375 100.109375 25.015625 101.738281 25.941406 C 103.535156 26.964844 104.746094 28.792969 105.597656 30.273438 C 108.214844 34.824219 109.800781 40 110.179688 45.242188 C 110.472656 49.304688 109.953125 52.589844 108.59375 55.28125 Z M 108.59375 55.28125 " fill-opacity="1" fill-rule="nonzero"/></g></g></g><g fill="#4b3473" fill-opacity="1"><g transform="translate(127.303472, 62.612431)"><g><path d="M 6.96875 -23.75 L 6.96875 -0.78125 L 14.28125 -0.78125 C 15.71875 -0.78125 17.148438 -1.09375 18.578125 -1.71875 C 20.003906 -2.351562 21.296875 -3.203125 22.453125 -4.265625 C 23.609375 -5.335938 24.445312 -6.546875 24.96875 -7.890625 L 25.375 -7.890625 L 22.828125 0 L 0 0 L 0 -0.390625 C 0.9375 -0.359375 1.632812 -0.738281 2.09375 -1.53125 C 2.5625 -2.320312 2.796875 -3.867188 2.796875 -6.171875 L 2.796875 -23.75 C 2.796875 -26.082031 2.5625 -27.648438 2.09375 -28.453125 C 1.632812 -29.253906 0.9375 -29.628906 0 -29.578125 L 0 -29.96875 L 9.765625 -29.96875 L 9.765625 -29.578125 C 8.835938 -29.628906 8.140625 -29.253906 7.671875 -28.453125 C 7.203125 -27.648438 6.96875 -26.082031 6.96875 -23.75 Z M 6.96875 -23.75 "/></g></g></g><g fill="#4b3473" fill-opacity="1"><g transform="translate(153.98647, 62.612431)"><g><path d="M 2.796875 -14.671875 C 2.796875 -17.015625 2.5625 -18.585938 2.09375 -19.390625 C 1.632812 -20.191406 0.9375 -20.5625 0 -20.5 L 0 -20.90625 C 1.28125 -20.90625 2.578125 -21.171875 3.890625 -21.703125 C 5.210938 -22.242188 6.164062 -22.941406 6.75 -23.796875 L 6.75 -5.953125 C 6.75 -4.640625 7.039062 -3.691406 7.625 -3.109375 C 8.207031 -2.523438 8.9375 -2.21875 9.8125 -2.1875 C 10.6875 -2.1875 11.566406 -2.398438 12.453125 -2.828125 C 13.347656 -3.253906 14.210938 -3.769531 15.046875 -4.375 C 15.878906 -4.988281 16.617188 -5.578125 17.265625 -6.140625 L 17.265625 -14.671875 C 17.265625 -17.015625 17.03125 -18.585938 16.5625 -19.390625 C 16.09375 -20.191406 15.390625 -20.5625 14.453125 -20.5 L 14.453125 -20.90625 C 15.742188 -20.90625 17.035156 -21.171875 18.328125 -21.703125 C 19.628906 -22.242188 20.570312 -22.941406 21.15625 -23.796875 L 21.203125 -5.703125 C 21.234375 -3.566406 21.484375 -2.140625 21.953125 -1.421875 C 22.421875 -0.703125 23.109375 -0.359375 24.015625 -0.390625 L 24.015625 0 L 19.765625 0 C 18.765625 0 18.097656 -0.273438 17.765625 -0.828125 C 17.429688 -1.390625 17.265625 -2.109375 17.265625 -2.984375 L 17.265625 -5.03125 C 16.359375 -4.1875 15.320312 -3.378906 14.15625 -2.609375 C 12.988281 -1.835938 11.796875 -1.207031 10.578125 -0.71875 C 9.367188 -0.238281 8.222656 0 7.140625 0 C 5.566406 0 4.445312 -0.488281 3.78125 -1.46875 C 3.125 -2.445312 2.796875 -3.648438 2.796875 -5.078125 Z M 2.796875 -14.671875 "/></g></g></g><g fill="#4b3473" fill-opacity="1"><g transform="translate(179.135965, 62.612431)"><g><path d="M 1 -9.59375 C 1.414062 -8.019531 2.132812 -6.5625 3.15625 -5.21875 C 4.175781 -3.875 5.394531 -2.796875 6.8125 -1.984375 C 8.226562 -1.179688 9.738281 -0.78125 11.34375 -0.78125 C 12.164062 -0.8125 13.03125 -0.929688 13.9375 -1.140625 C 14.84375 -1.347656 15.664062 -1.695312 16.40625 -2.1875 C 17.15625 -2.6875 17.6875 -3.375 18 -4.25 C 18.320312 -5.09375 18.289062 -5.929688 17.90625 -6.765625 C 17.53125 -7.597656 16.878906 -8.289062 15.953125 -8.84375 C 15.078125 -9.34375 14.046875 -9.726562 12.859375 -10 C 11.671875 -10.28125 10.445312 -10.550781 9.1875 -10.8125 C 7.9375 -11.082031 6.726562 -11.421875 5.5625 -11.828125 C 4.75 -12.117188 3.960938 -12.484375 3.203125 -12.921875 C 2.441406 -13.359375 1.816406 -13.925781 1.328125 -14.625 C 0.847656 -15.332031 0.609375 -16.226562 0.609375 -17.3125 C 0.609375 -18.300781 0.90625 -19.179688 1.5 -19.953125 C 2.101562 -20.734375 2.835938 -21.382812 3.703125 -21.90625 C 4.566406 -22.425781 5.40625 -22.820312 6.21875 -23.09375 C 7.007812 -23.320312 7.828125 -23.492188 8.671875 -23.609375 C 9.523438 -23.734375 10.390625 -23.796875 11.265625 -23.796875 C 12.835938 -23.796875 14.382812 -23.625 15.90625 -23.28125 C 17.425781 -22.945312 18.785156 -22.457031 19.984375 -21.8125 L 18.578125 -18.140625 C 18.253906 -18.722656 17.800781 -19.363281 17.21875 -20.0625 C 16.632812 -20.769531 15.894531 -21.398438 15 -21.953125 C 14.113281 -22.503906 13.039062 -22.835938 11.78125 -22.953125 C 10.9375 -23.046875 9.96875 -23.023438 8.875 -22.890625 C 7.78125 -22.753906 6.851562 -22.441406 6.09375 -21.953125 C 5.300781 -21.484375 4.691406 -20.890625 4.265625 -20.171875 C 3.847656 -19.460938 3.738281 -18.726562 3.9375 -17.96875 C 4.144531 -17.207031 4.789062 -16.546875 5.875 -15.984375 C 6.832031 -15.492188 7.910156 -15.113281 9.109375 -14.84375 C 10.304688 -14.582031 11.519531 -14.328125 12.75 -14.078125 C 13.976562 -13.835938 15.140625 -13.507812 16.234375 -13.09375 C 17.328125 -12.6875 18.253906 -12.085938 19.015625 -11.296875 C 19.679688 -10.628906 20.140625 -9.796875 20.390625 -8.796875 C 20.640625 -7.804688 20.675781 -6.800781 20.5 -5.78125 C 20.320312 -4.757812 19.941406 -3.867188 19.359375 -3.109375 C 18.484375 -1.941406 17.28125 -1.128906 15.75 -0.671875 C 14.21875 -0.222656 12.707031 0 11.21875 0 C 9.195312 0 7.285156 -0.296875 5.484375 -0.890625 C 3.691406 -1.492188 2.066406 -2.410156 0.609375 -3.640625 L 0.609375 -9.59375 Z M 1 -9.59375 "/></g></g></g><g fill="#4b3473" fill-opacity="1"><g transform="translate(202.48907, 62.612431)"><g><path d="M 27.34375 -1.796875 C 27.019531 -1.148438 26.566406 -0.6875 25.984375 -0.40625 C 25.398438 -0.132812 24.785156 0 24.140625 0 C 22.734375 0 21.65625 -0.425781 20.90625 -1.28125 C 20.164062 -2.144531 19.578125 -3.164062 19.140625 -4.34375 C 18.648438 -5.6875 18.265625 -7.164062 17.984375 -8.78125 C 17.703125 -10.40625 17.4375 -12.023438 17.1875 -13.640625 C 16.945312 -15.265625 16.632812 -16.734375 16.25 -18.046875 C 15.613281 -20.390625 14.625 -21.632812 13.28125 -21.78125 C 11.9375 -21.925781 10.472656 -21.222656 8.890625 -19.671875 C 8.484375 -19.296875 8.097656 -18.878906 7.734375 -18.421875 C 7.367188 -17.972656 7.039062 -17.539062 6.75 -17.125 L 6.75 -6.171875 C 6.75 -3.867188 6.984375 -2.320312 7.453125 -1.53125 C 7.921875 -0.738281 8.617188 -0.359375 9.546875 -0.390625 L 9.546875 0 L 0 0 L 0 -0.390625 C 0.9375 -0.359375 1.632812 -0.738281 2.09375 -1.53125 C 2.5625 -2.320312 2.796875 -3.867188 2.796875 -6.171875 L 2.796875 -23.796875 C 2.796875 -26.128906 2.5625 -27.6875 2.09375 -28.46875 C 1.632812 -29.257812 0.9375 -29.628906 0 -29.578125 L 0 -29.96875 C 1.28125 -29.96875 2.578125 -30.238281 3.890625 -30.78125 C 5.210938 -31.320312 6.164062 -32.015625 6.75 -32.859375 L 6.75 -18.53125 C 7.414062 -19.40625 8.144531 -20.242188 8.9375 -21.046875 C 9.726562 -21.847656 10.597656 -22.503906 11.546875 -23.015625 C 12.492188 -23.535156 13.535156 -23.796875 14.671875 -23.796875 C 15.867188 -23.796875 16.832031 -23.523438 17.5625 -22.984375 C 18.300781 -22.441406 18.878906 -21.742188 19.296875 -20.890625 C 19.722656 -20.046875 20.050781 -19.128906 20.28125 -18.140625 C 20.519531 -17.148438 20.726562 -16.210938 20.90625 -15.328125 C 21.21875 -13.835938 21.503906 -12.316406 21.765625 -10.765625 C 22.035156 -9.222656 22.351562 -7.769531 22.71875 -6.40625 C 23.082031 -5.050781 23.570312 -3.910156 24.1875 -2.984375 C 24.476562 -2.566406 24.882812 -2.195312 25.40625 -1.875 C 25.9375 -1.5625 26.476562 -1.625 27.03125 -2.0625 Z M 27.34375 -1.796875 "/></g></g></g><g fill="#4b3473" fill-opacity="1"><g transform="translate(230.837022, 62.612431)"><g><path d="M 6.96875 -6.171875 C 6.96875 -3.867188 7.203125 -2.320312 7.671875 -1.53125 C 8.140625 -0.738281 8.835938 -0.359375 9.765625 -0.390625 L 9.765625 0 L 0 0 L 0 -0.390625 C 0.9375 -0.359375 1.632812 -0.738281 2.09375 -1.53125 C 2.5625 -2.320312 2.796875 -3.867188 2.796875 -6.171875 L 2.796875 -23.75 C 2.796875 -26.082031 2.5625 -27.648438 2.09375 -28.453125 C 1.632812 -29.253906 0.9375 -29.628906 0 -29.578125 L 0 -29.96875 L 16.34375 -29.96875 C 17.539062 -29.96875 18.738281 -29.796875 19.9375 -29.453125 C 21.132812 -29.117188 22.140625 -28.539062 22.953125 -27.71875 C 23.773438 -26.90625 24.1875 -25.785156 24.1875 -24.359375 C 24.1875 -22.929688 23.769531 -21.765625 22.9375 -20.859375 C 22.101562 -19.953125 21.035156 -19.207031 19.734375 -18.625 C 18.429688 -18.039062 17.097656 -17.5 15.734375 -17 C 16.984375 -16.882812 17.972656 -16.519531 18.703125 -15.90625 C 19.429688 -15.289062 19.957031 -14.5 20.28125 -13.53125 C 20.488281 -12.925781 20.753906 -12.101562 21.078125 -11.0625 C 21.398438 -10.019531 21.75 -8.929688 22.125 -7.796875 C 22.5 -6.660156 22.890625 -5.613281 23.296875 -4.65625 C 23.710938 -3.707031 24.109375 -3.015625 24.484375 -2.578125 C 24.804688 -2.234375 25.191406 -1.960938 25.640625 -1.765625 C 26.097656 -1.578125 26.546875 -1.675781 26.984375 -2.0625 L 27.296875 -1.796875 C 27.003906 -1.148438 26.566406 -0.6875 25.984375 -0.40625 C 25.398438 -0.132812 24.785156 0 24.140625 0 C 23.054688 0 22.175781 -0.253906 21.5 -0.765625 C 20.832031 -1.273438 20.296875 -1.925781 19.890625 -2.71875 C 19.367188 -3.675781 18.910156 -4.753906 18.515625 -5.953125 C 18.117188 -7.148438 17.757812 -8.347656 17.4375 -9.546875 C 17.113281 -10.742188 16.765625 -11.84375 16.390625 -12.84375 C 15.921875 -14.15625 15.304688 -15.054688 14.546875 -15.546875 C 13.785156 -16.046875 12.734375 -15.972656 11.390625 -15.328125 C 10.578125 -14.953125 9.753906 -14.425781 8.921875 -13.75 C 8.085938 -13.082031 7.4375 -12.484375 6.96875 -11.953125 Z M 6.96875 -29.171875 L 6.96875 -13.09375 C 7.550781 -13.675781 8.1875 -14.21875 8.875 -14.71875 C 9.5625 -15.21875 10.285156 -15.703125 11.046875 -16.171875 C 11.742188 -16.640625 12.59375 -17.15625 13.59375 -17.71875 C 14.601562 -18.289062 15.597656 -18.910156 16.578125 -19.578125 C 17.554688 -20.253906 18.367188 -21 19.015625 -21.8125 C 19.660156 -22.632812 19.984375 -23.539062 19.984375 -24.53125 C 20.003906 -25.84375 19.648438 -26.828125 18.921875 -27.484375 C 18.191406 -28.148438 17.285156 -28.597656 16.203125 -28.828125 C 15.128906 -29.054688 14.082031 -29.171875 13.0625 -29.171875 Z M 6.96875 -29.171875 "/></g></g></g><g fill="#4b3473" fill-opacity="1"><g transform="translate(259.447861, 62.612431)"><g><path d="M 12.484375 -23.796875 C 10.847656 -23.796875 9.304688 -23.488281 7.859375 -22.875 C 6.421875 -22.257812 5.160156 -21.40625 4.078125 -20.3125 C 2.992188 -19.21875 2.144531 -17.945312 1.53125 -16.5 C 0.914062 -15.050781 0.609375 -13.507812 0.609375 -11.875 C 0.609375 -10.238281 0.914062 -8.695312 1.53125 -7.25 C 2.144531 -5.800781 2.992188 -4.535156 4.078125 -3.453125 C 5.160156 -2.378906 6.421875 -1.535156 7.859375 -0.921875 C 9.304688 -0.304688 10.847656 0 12.484375 0 C 14.117188 0 15.660156 -0.304688 17.109375 -0.921875 C 18.554688 -1.535156 19.828125 -2.378906 20.921875 -3.453125 C 22.015625 -4.535156 22.867188 -5.800781 23.484375 -7.25 C 24.097656 -8.695312 24.40625 -10.238281 24.40625 -11.875 C 24.40625 -13.507812 24.097656 -15.050781 23.484375 -16.5 C 22.867188 -17.945312 22.015625 -19.21875 20.921875 -20.3125 C 19.828125 -21.40625 18.554688 -22.257812 17.109375 -22.875 C 15.660156 -23.488281 14.117188 -23.796875 12.484375 -23.796875 Z M 8.8125 -22.34375 C 10.207031 -22.84375 11.632812 -22.820312 13.09375 -22.28125 C 14.5625 -21.738281 15.914062 -20.796875 17.15625 -19.453125 C 18.394531 -18.109375 19.347656 -16.472656 20.015625 -14.546875 C 20.691406 -12.617188 20.96875 -10.738281 20.84375 -8.90625 C 20.726562 -7.082031 20.269531 -5.5 19.46875 -4.15625 C 18.664062 -2.8125 17.578125 -1.894531 16.203125 -1.40625 C 14.835938 -0.9375 13.414062 -0.972656 11.9375 -1.515625 C 10.457031 -2.054688 9.101562 -3 7.875 -4.34375 C 6.65625 -5.6875 5.695312 -7.320312 5 -9.25 C 4.320312 -11.175781 4.035156 -13.050781 4.140625 -14.875 C 4.242188 -16.695312 4.703125 -18.28125 5.515625 -19.625 C 6.335938 -20.96875 7.4375 -21.875 8.8125 -22.34375 Z M 8.8125 -22.34375 "/></g></g></g><g fill="#4b3473" fill-opacity="1"><g transform="translate(285.648906, 62.612431)"><g><path d="M 12.484375 -23.796875 C 10.847656 -23.796875 9.304688 -23.488281 7.859375 -22.875 C 6.421875 -22.257812 5.160156 -21.40625 4.078125 -20.3125 C 2.992188 -19.21875 2.144531 -17.945312 1.53125 -16.5 C 0.914062 -15.050781 0.609375 -13.507812 0.609375 -11.875 C 0.609375 -10.238281 0.914062 -8.695312 1.53125 -7.25 C 2.144531 -5.800781 2.992188 -4.535156 4.078125 -3.453125 C 5.160156 -2.378906 6.421875 -1.535156 7.859375 -0.921875 C 9.304688 -0.304688 10.847656 0 12.484375 0 C 14.117188 0 15.660156 -0.304688 17.109375 -0.921875 C 18.554688 -1.535156 19.828125 -2.378906 20.921875 -3.453125 C 22.015625 -4.535156 22.867188 -5.800781 23.484375 -7.25 C 24.097656 -8.695312 24.40625 -10.238281 24.40625 -11.875 C 24.40625 -13.507812 24.097656 -15.050781 23.484375 -16.5 C 22.867188 -17.945312 22.015625 -19.21875 20.921875 -20.3125 C 19.828125 -21.40625 18.554688 -22.257812 17.109375 -22.875 C 15.660156 -23.488281 14.117188 -23.796875 12.484375 -23.796875 Z M 8.8125 -22.34375 C 10.207031 -22.84375 11.632812 -22.820312 13.09375 -22.28125 C 14.5625 -21.738281 15.914062 -20.796875 17.15625 -19.453125 C 18.394531 -18.109375 19.347656 -16.472656 20.015625 -14.546875 C 20.691406 -12.617188 20.96875 -10.738281 20.84375 -8.90625 C 20.726562 -7.082031 20.269531 -5.5 19.46875 -4.15625 C 18.664062 -2.8125 17.578125 -1.894531 16.203125 -1.40625 C 14.835938 -0.9375 13.414062 -0.972656 11.9375 -1.515625 C 10.457031 -2.054688 9.101562 -3 7.875 -4.34375 C 6.65625 -5.6875 5.695312 -7.320312 5 -9.25 C 4.320312 -11.175781 4.035156 -13.050781 4.140625 -14.875 C 4.242188 -16.695312 4.703125 -18.28125 5.515625 -19.625 C 6.335938 -20.96875 7.4375 -21.875 8.8125 -22.34375 Z M 8.8125 -22.34375 "/></g></g></g><g fill="#4b3473" fill-opacity="1"><g transform="translate(311.84996, 62.612431)"><g><path d="M 0 -23.796875 C 0.757812 -23.796875 1.554688 -23.953125 2.390625 -24.265625 C 3.222656 -24.585938 3.992188 -25.035156 4.703125 -25.609375 C 5.421875 -26.179688 5.972656 -26.847656 6.359375 -27.609375 L 6.75 -27.609375 L 6.75 -23.796875 L 12.21875 -23.796875 L 12.21875 -23 L 6.75 -23 L 6.75 -5.390625 C 6.75 -3.929688 7.003906 -2.9375 7.515625 -2.40625 C 8.023438 -1.882812 8.679688 -1.773438 9.484375 -2.078125 C 10.285156 -2.390625 11.097656 -3.023438 11.921875 -3.984375 L 12.21875 -3.71875 C 11.582031 -2.8125 10.835938 -1.960938 9.984375 -1.171875 C 9.140625 -0.390625 8.117188 0 6.921875 0 C 5.898438 0 5.085938 -0.269531 4.484375 -0.8125 C 3.890625 -1.351562 3.457031 -2.03125 3.1875 -2.84375 C 2.925781 -3.664062 2.796875 -4.515625 2.796875 -5.390625 L 2.796875 -23 L 0 -23 Z M 0 -23.796875 "/></g></g></g><g fill="#4b3473" fill-opacity="1"><g transform="translate(325.213366, 62.612431)"><g><path d="M 1 -9.59375 C 1.414062 -8.019531 2.132812 -6.5625 3.15625 -5.21875 C 4.175781 -3.875 5.394531 -2.796875 6.8125 -1.984375 C 8.226562 -1.179688 9.738281 -0.78125 11.34375 -0.78125 C 12.164062 -0.8125 13.03125 -0.929688 13.9375 -1.140625 C 14.84375 -1.347656 15.664062 -1.695312 16.40625 -2.1875 C 17.15625 -2.6875 17.6875 -3.375 18 -4.25 C 18.320312 -5.09375 18.289062 -5.929688 17.90625 -6.765625 C 17.53125 -7.597656 16.878906 -8.289062 15.953125 -8.84375 C 15.078125 -9.34375 14.046875 -9.726562 12.859375 -10 C 11.671875 -10.28125 10.445312 -10.550781 9.1875 -10.8125 C 7.9375 -11.082031 6.726562 -11.421875 5.5625 -11.828125 C 4.75 -12.117188 3.960938 -12.484375 3.203125 -12.921875 C 2.441406 -13.359375 1.816406 -13.925781 1.328125 -14.625 C 0.847656 -15.332031 0.609375 -16.226562 0.609375 -17.3125 C 0.609375 -18.300781 0.90625 -19.179688 1.5 -19.953125 C 2.101562 -20.734375 2.835938 -21.382812 3.703125 -21.90625 C 4.566406 -22.425781 5.40625 -22.820312 6.21875 -23.09375 C 7.007812 -23.320312 7.828125 -23.492188 8.671875 -23.609375 C 9.523438 -23.734375 10.390625 -23.796875 11.265625 -23.796875 C 12.835938 -23.796875 14.382812 -23.625 15.90625 -23.28125 C 17.425781 -22.945312 18.785156 -22.457031 19.984375 -21.8125 L 18.578125 -18.140625 C 18.253906 -18.722656 17.800781 -19.363281 17.21875 -20.0625 C 16.632812 -20.769531 15.894531 -21.398438 15 -21.953125 C 14.113281 -22.503906 13.039062 -22.835938 11.78125 -22.953125 C 10.9375 -23.046875 9.96875 -23.023438 8.875 -22.890625 C 7.78125 -22.753906 6.851562 -22.441406 6.09375 -21.953125 C 5.300781 -21.484375 4.691406 -20.890625 4.265625 -20.171875 C 3.847656 -19.460938 3.738281 -18.726562 3.9375 -17.96875 C 4.144531 -17.207031 4.789062 -16.546875 5.875 -15.984375 C 6.832031 -15.492188 7.910156 -15.113281 9.109375 -14.84375 C 10.304688 -14.582031 11.519531 -14.328125 12.75 -14.078125 C 13.976562 -13.835938 15.140625 -13.507812 16.234375 -13.09375 C 17.328125 -12.6875 18.253906 -12.085938 19.015625 -11.296875 C 19.679688 -10.628906 20.140625 -9.796875 20.390625 -8.796875 C 20.640625 -7.804688 20.675781 -6.800781 20.5 -5.78125 C 20.320312 -4.757812 19.941406 -3.867188 19.359375 -3.109375 C 18.484375 -1.941406 17.28125 -1.128906 15.75 -0.671875 C 14.21875 -0.222656 12.707031 0 11.21875 0 C 9.195312 0 7.285156 -0.296875 5.484375 -0.890625 C 3.691406 -1.492188 2.066406 -2.410156 0.609375 -3.640625 L 0.609375 -9.59375 Z M 1 -9.59375 "/></g></g></g><g fill="#160633" fill-opacity="1"><g transform="translate(175.356911, 81.25473)"><g><path d="M 5.03125 -10.265625 C 5.03125 -10.328125 5.039062 -10.367188 5.0625 -10.390625 C 5.082031 -10.421875 5.144531 -10.4375 5.25 -10.4375 C 5.363281 -10.445312 5.515625 -10.453125 5.703125 -10.453125 L 5.703125 -0.171875 C 5.703125 -0.109375 5.691406 -0.0664062 5.671875 -0.046875 C 5.648438 -0.0234375 5.582031 -0.0078125 5.46875 0 C 5.363281 0 5.21875 0 5.03125 0 L 5.03125 -5.375 L 1.546875 -5.375 L 1.546875 -0.171875 C 1.546875 -0.109375 1.535156 -0.0664062 1.515625 -0.046875 C 1.503906 -0.0234375 1.441406 -0.0078125 1.328125 0 C 1.210938 0 1.0625 0 0.875 0 L 0.875 -10.265625 C 0.875 -10.335938 0.882812 -10.382812 0.90625 -10.40625 C 0.925781 -10.425781 0.988281 -10.4375 1.09375 -10.4375 C 1.207031 -10.445312 1.359375 -10.453125 1.546875 -10.453125 L 1.546875 -6.03125 L 5.03125 -6.03125 Z M 5.03125 -10.265625 "/></g></g></g><g fill="#160633" fill-opacity="1"><g transform="translate(181.933207, 81.25473)"><g><path d="M 6.390625 -0.125 C 6.390625 -0.03125 6.296875 0.015625 6.109375 0.015625 C 5.929688 0.015625 5.796875 0.0078125 5.703125 0 L 4.890625 -2.96875 L 1.609375 -2.96875 L 0.859375 -0.140625 C 0.847656 -0.0664062 0.820312 -0.0195312 0.78125 0 C 0.738281 0.0078125 0.65625 0.015625 0.53125 0.015625 C 0.375 0.015625 0.238281 0.0078125 0.125 0 L 2.984375 -10.421875 C 3.003906 -10.472656 3.078125 -10.5 3.203125 -10.5 C 3.316406 -10.5 3.410156 -10.488281 3.484375 -10.46875 L 6.375 -0.171875 Z M 4.734375 -3.609375 L 3.921875 -6.59375 C 3.515625 -8.09375 3.289062 -9.070312 3.25 -9.53125 C 3.1875 -9.070312 2.957031 -8.09375 2.5625 -6.59375 L 1.78125 -3.609375 Z M 4.734375 -3.609375 "/></g></g></g><g fill="#160633" fill-opacity="1"><g transform="translate(188.434946, 81.25473)"><g><path d="M 0.875 -10.09375 C 0.875 -10.21875 0.882812 -10.300781 0.90625 -10.34375 C 0.925781 -10.394531 0.976562 -10.425781 1.0625 -10.4375 C 1.144531 -10.445312 1.3125 -10.453125 1.5625 -10.453125 L 1.5625 -0.171875 C 1.5625 -0.117188 1.550781 -0.078125 1.53125 -0.046875 C 1.507812 -0.0234375 1.441406 -0.0078125 1.328125 0 C 1.210938 0 1.0625 0 0.875 0 Z M 0.875 -10.09375 "/></g></g></g><g fill="#160633" fill-opacity="1"><g transform="translate(190.880557, 81.25473)"><g><path d="M 5.1875 -7.640625 C 5.1875 -6.816406 5.046875 -6.15625 4.765625 -5.65625 C 4.484375 -5.164062 4.082031 -4.828125 3.5625 -4.640625 C 3.882812 -4.203125 4.203125 -3.613281 4.515625 -2.875 C 4.828125 -2.132812 5.035156 -1.242188 5.140625 -0.203125 C 5.140625 -0.117188 5.117188 -0.0625 5.078125 -0.03125 C 5.035156 -0.0078125 4.945312 0.00390625 4.8125 0.015625 L 4.4375 0 C 4.289062 -1.195312 4.066406 -2.160156 3.765625 -2.890625 C 3.460938 -3.628906 3.171875 -4.164062 2.890625 -4.5 C 2.828125 -4.488281 2.71875 -4.484375 2.5625 -4.484375 L 1.546875 -4.484375 L 1.546875 -0.171875 C 1.546875 -0.109375 1.535156 -0.0664062 1.515625 -0.046875 C 1.503906 -0.0234375 1.441406 -0.0078125 1.328125 0 C 1.210938 0 1.0625 0 0.875 0 L 0.875 -10.265625 C 0.875 -10.296875 0.882812 -10.332031 0.90625 -10.375 C 0.9375 -10.425781 0.988281 -10.453125 1.0625 -10.453125 L 2.640625 -10.453125 C 3.535156 -10.453125 4.179688 -10.203125 4.578125 -9.703125 C 4.984375 -9.203125 5.1875 -8.515625 5.1875 -7.640625 Z M 2.59375 -5.125 C 3.21875 -5.125 3.6875 -5.34375 4 -5.78125 C 4.320312 -6.21875 4.484375 -6.847656 4.484375 -7.671875 C 4.484375 -8.335938 4.34375 -8.863281 4.0625 -9.25 C 3.789062 -9.632812 3.328125 -9.828125 2.671875 -9.828125 L 1.546875 -9.828125 L 1.546875 -5.125 Z M 2.59375 -5.125 "/></g></g></g><g fill="#160633" fill-opacity="1"><g transform="translate(196.54721, 81.25473)"><g/></g></g><g fill="#160633" fill-opacity="1"><g transform="translate(199.201591, 81.25473)"><g><path d="M 3.40625 0.15625 C 2.789062 0.15625 2.28125 0.0195312 1.875 -0.25 C 1.476562 -0.53125 1.164062 -1.050781 0.9375 -1.8125 C 0.71875 -2.582031 0.609375 -3.679688 0.609375 -5.109375 C 0.609375 -6.554688 0.734375 -7.679688 0.984375 -8.484375 C 1.242188 -9.285156 1.597656 -9.835938 2.046875 -10.140625 C 2.492188 -10.441406 3.054688 -10.59375 3.734375 -10.59375 C 4.171875 -10.59375 4.535156 -10.523438 4.828125 -10.390625 C 5.128906 -10.265625 5.28125 -10.117188 5.28125 -9.953125 C 5.28125 -9.796875 5.242188 -9.644531 5.171875 -9.5 C 4.816406 -9.789062 4.375 -9.9375 3.84375 -9.9375 C 3.289062 -9.9375 2.828125 -9.800781 2.453125 -9.53125 C 2.085938 -9.257812 1.804688 -8.769531 1.609375 -8.0625 C 1.410156 -7.363281 1.3125 -6.390625 1.3125 -5.140625 C 1.3125 -3.828125 1.398438 -2.832031 1.578125 -2.15625 C 1.753906 -1.488281 1.992188 -1.046875 2.296875 -0.828125 C 2.597656 -0.609375 2.976562 -0.5 3.4375 -0.5 C 3.78125 -0.5 4.070312 -0.570312 4.3125 -0.71875 C 4.550781 -0.863281 4.707031 -1.007812 4.78125 -1.15625 L 4.78125 -5.28125 L 3.171875 -5.28125 L 3.171875 -5.6875 C 3.171875 -5.8125 3.242188 -5.875 3.390625 -5.875 L 5.421875 -5.875 L 5.421875 -0.765625 C 4.953125 -0.148438 4.28125 0.15625 3.40625 0.15625 Z M 3.40625 0.15625 "/></g></g></g><g fill="#160633" fill-opacity="1"><g transform="translate(205.226134, 81.25473)"><g><path d="M 5.1875 -7.640625 C 5.1875 -6.816406 5.046875 -6.15625 4.765625 -5.65625 C 4.484375 -5.164062 4.082031 -4.828125 3.5625 -4.640625 C 3.882812 -4.203125 4.203125 -3.613281 4.515625 -2.875 C 4.828125 -2.132812 5.035156 -1.242188 5.140625 -0.203125 C 5.140625 -0.117188 5.117188 -0.0625 5.078125 -0.03125 C 5.035156 -0.0078125 4.945312 0.00390625 4.8125 0.015625 L 4.4375 0 C 4.289062 -1.195312 4.066406 -2.160156 3.765625 -2.890625 C 3.460938 -3.628906 3.171875 -4.164062 2.890625 -4.5 C 2.828125 -4.488281 2.71875 -4.484375 2.5625 -4.484375 L 1.546875 -4.484375 L 1.546875 -0.171875 C 1.546875 -0.109375 1.535156 -0.0664062 1.515625 -0.046875 C 1.503906 -0.0234375 1.441406 -0.0078125 1.328125 0 C 1.210938 0 1.0625 0 0.875 0 L 0.875 -10.265625 C 0.875 -10.296875 0.882812 -10.332031 0.90625 -10.375 C 0.9375 -10.425781 0.988281 -10.453125 1.0625 -10.453125 L 2.640625 -10.453125 C 3.535156 -10.453125 4.179688 -10.203125 4.578125 -9.703125 C 4.984375 -9.203125 5.1875 -8.515625 5.1875 -7.640625 Z M 2.59375 -5.125 C 3.21875 -5.125 3.6875 -5.34375 4 -5.78125 C 4.320312 -6.21875 4.484375 -6.847656 4.484375 -7.671875 C 4.484375 -8.335938 4.34375 -8.863281 4.0625 -9.25 C 3.789062 -9.632812 3.328125 -9.828125 2.671875 -9.828125 L 1.546875 -9.828125 L 1.546875 -5.125 Z M 2.59375 -5.125 "/></g></g></g><g fill="#160633" fill-opacity="1"><g transform="translate(210.892786, 81.25473)"><g><path d="M 3.328125 0.15625 C 2.671875 0.15625 2.144531 -0.0078125 1.75 -0.34375 C 1.351562 -0.675781 1.0625 -1.234375 0.875 -2.015625 C 0.695312 -2.804688 0.609375 -3.898438 0.609375 -5.296875 C 0.609375 -7.179688 0.835938 -8.535156 1.296875 -9.359375 C 1.765625 -10.179688 2.492188 -10.59375 3.484375 -10.59375 C 4.148438 -10.59375 4.671875 -10.421875 5.046875 -10.078125 C 5.421875 -9.742188 5.695312 -9.195312 5.875 -8.4375 C 6.050781 -7.675781 6.140625 -6.632812 6.140625 -5.3125 C 6.140625 -3.976562 6.039062 -2.910156 5.84375 -2.109375 C 5.644531 -1.316406 5.34375 -0.738281 4.9375 -0.375 C 4.53125 -0.0195312 3.992188 0.15625 3.328125 0.15625 Z M 3.34375 -0.53125 C 3.84375 -0.53125 4.242188 -0.6875 4.546875 -1 C 4.847656 -1.320312 5.070312 -1.828125 5.21875 -2.515625 C 5.363281 -3.210938 5.4375 -4.148438 5.4375 -5.328125 C 5.4375 -6.472656 5.367188 -7.378906 5.234375 -8.046875 C 5.109375 -8.710938 4.898438 -9.1875 4.609375 -9.46875 C 4.328125 -9.757812 3.953125 -9.90625 3.484375 -9.90625 C 2.984375 -9.90625 2.578125 -9.75 2.265625 -9.4375 C 1.960938 -9.125 1.734375 -8.613281 1.578125 -7.90625 C 1.421875 -7.195312 1.34375 -6.253906 1.34375 -5.078125 C 1.34375 -3.960938 1.410156 -3.078125 1.546875 -2.421875 C 1.679688 -1.765625 1.890625 -1.285156 2.171875 -0.984375 C 2.460938 -0.679688 2.851562 -0.53125 3.34375 -0.53125 Z M 3.34375 -0.53125 "/></g></g></g><g fill="#160633" fill-opacity="1"><g transform="translate(217.648035, 81.25473)"><g><path d="M 9.46875 -10.453125 L 7.3125 0.109375 C 7.257812 0.109375 7.191406 0.113281 7.109375 0.125 C 7.023438 0.144531 6.925781 0.15625 6.8125 0.15625 C 6.664062 0.15625 6.546875 -0.0859375 6.453125 -0.578125 L 5.171875 -5.984375 C 5.117188 -6.265625 5.0625 -6.59375 5 -6.96875 C 4.9375 -7.351562 4.878906 -7.707031 4.828125 -8.03125 L 4.75 -8.625 C 4.582031 -7.519531 4.445312 -6.648438 4.34375 -6.015625 L 3.046875 0.109375 C 2.867188 0.128906 2.6875 0.140625 2.5 0.140625 C 2.363281 0.140625 2.242188 -0.164062 2.140625 -0.78125 L 0.09375 -10.171875 L 0.078125 -10.296875 C 0.078125 -10.398438 0.125 -10.453125 0.21875 -10.453125 L 0.75 -10.453125 L 2.234375 -3.59375 C 2.359375 -2.988281 2.472656 -2.328125 2.578125 -1.609375 L 2.703125 -0.859375 L 2.75 -0.859375 C 2.820312 -1.722656 2.957031 -2.632812 3.15625 -3.59375 L 4.390625 -9.625 C 4.421875 -9.726562 4.441406 -9.796875 4.453125 -9.828125 C 4.472656 -9.859375 4.519531 -9.875 4.59375 -9.875 L 5.09375 -9.875 L 6.46875 -3.59375 C 6.570312 -3.15625 6.648438 -2.75 6.703125 -2.375 C 6.765625 -2.007812 6.800781 -1.773438 6.8125 -1.671875 C 6.832031 -1.535156 6.875 -1.273438 6.9375 -0.890625 L 6.984375 -0.890625 C 6.992188 -0.984375 7.019531 -1.15625 7.0625 -1.40625 C 7.195312 -2.425781 7.304688 -3.15625 7.390625 -3.59375 L 8.734375 -10.171875 C 8.753906 -10.273438 8.773438 -10.347656 8.796875 -10.390625 C 8.816406 -10.429688 8.863281 -10.453125 8.9375 -10.453125 Z M 9.46875 -10.453125 "/></g></g></g><g fill="#160633" fill-opacity="1"><g transform="translate(227.162046, 81.25473)"><g><path d="M 5.359375 -10.453125 L 5.359375 -9.984375 C 5.359375 -9.859375 5.289062 -9.796875 5.15625 -9.796875 L 3.03125 -9.796875 L 3.03125 -0.171875 C 3.03125 -0.109375 3.019531 -0.0664062 3 -0.046875 C 2.976562 -0.0234375 2.910156 -0.0078125 2.796875 0 C 2.691406 0 2.546875 0 2.359375 0 L 2.359375 -9.796875 L 0.09375 -9.796875 L 0.09375 -10.265625 C 0.09375 -10.390625 0.15625 -10.453125 0.28125 -10.453125 Z M 5.359375 -10.453125 "/></g></g></g><g fill="#160633" fill-opacity="1"><g transform="translate(232.605013, 81.25473)"><g><path d="M 5.03125 -10.265625 C 5.03125 -10.328125 5.039062 -10.367188 5.0625 -10.390625 C 5.082031 -10.421875 5.144531 -10.4375 5.25 -10.4375 C 5.363281 -10.445312 5.515625 -10.453125 5.703125 -10.453125 L 5.703125 -0.171875 C 5.703125 -0.109375 5.691406 -0.0664062 5.671875 -0.046875 C 5.648438 -0.0234375 5.582031 -0.0078125 5.46875 0 C 5.363281 0 5.21875 0 5.03125 0 L 5.03125 -5.375 L 1.546875 -5.375 L 1.546875 -0.171875 C 1.546875 -0.109375 1.535156 -0.0664062 1.515625 -0.046875 C 1.503906 -0.0234375 1.441406 -0.0078125 1.328125 0 C 1.210938 0 1.0625 0 0.875 0 L 0.875 -10.265625 C 0.875 -10.335938 0.882812 -10.382812 0.90625 -10.40625 C 0.925781 -10.425781 0.988281 -10.4375 1.09375 -10.4375 C 1.207031 -10.445312 1.359375 -10.453125 1.546875 -10.453125 L 1.546875 -6.03125 L 5.03125 -6.03125 Z M 5.03125 -10.265625 "/></g></g></g><g fill="#160633" fill-opacity="1"><g transform="translate(239.181308, 81.25473)"><g/></g></g><g fill="#160633" fill-opacity="1"><g transform="translate(241.835689, 81.25473)"><g><path d="M 2.5 0.15625 C 2.070312 0.15625 1.707031 0.109375 1.40625 0.015625 C 1.113281 -0.0664062 0.894531 -0.164062 0.75 -0.28125 C 0.601562 -0.394531 0.53125 -0.503906 0.53125 -0.609375 C 0.53125 -0.691406 0.550781 -0.773438 0.59375 -0.859375 C 0.632812 -0.941406 0.691406 -1.015625 0.765625 -1.078125 C 1.171875 -0.703125 1.742188 -0.515625 2.484375 -0.515625 C 3.128906 -0.515625 3.609375 -0.6875 3.921875 -1.03125 C 4.234375 -1.382812 4.390625 -1.867188 4.390625 -2.484375 C 4.390625 -2.929688 4.304688 -3.328125 4.140625 -3.671875 C 3.984375 -4.023438 3.695312 -4.414062 3.28125 -4.84375 L 1.625 -6.515625 C 1.269531 -6.910156 1.003906 -7.269531 0.828125 -7.59375 C 0.660156 -7.914062 0.578125 -8.257812 0.578125 -8.625 C 0.578125 -9.207031 0.796875 -9.679688 1.234375 -10.046875 C 1.671875 -10.410156 2.273438 -10.59375 3.046875 -10.59375 C 3.648438 -10.59375 4.109375 -10.523438 4.421875 -10.390625 C 4.742188 -10.265625 4.90625 -10.125 4.90625 -9.96875 C 4.90625 -9.820312 4.84375 -9.679688 4.71875 -9.546875 C 4.570312 -9.660156 4.351562 -9.757812 4.0625 -9.84375 C 3.769531 -9.9375 3.4375 -9.984375 3.0625 -9.984375 C 2.519531 -9.984375 2.085938 -9.859375 1.765625 -9.609375 C 1.441406 -9.367188 1.28125 -9.046875 1.28125 -8.640625 C 1.28125 -8.335938 1.351562 -8.0625 1.5 -7.8125 C 1.644531 -7.570312 1.863281 -7.296875 2.15625 -6.984375 L 3.984375 -5.140625 C 4.398438 -4.703125 4.6875 -4.285156 4.84375 -3.890625 C 5.007812 -3.503906 5.09375 -3.050781 5.09375 -2.53125 C 5.09375 -1.71875 4.878906 -1.066406 4.453125 -0.578125 C 4.023438 -0.0859375 3.375 0.15625 2.5 0.15625 Z M 2.5 0.15625 "/></g></g></g><g fill="#160633" fill-opacity="1"><g transform="translate(247.412869, 81.25473)"><g><path d="M 3.578125 0.15625 C 2.816406 0.15625 2.234375 0.00390625 1.828125 -0.296875 C 1.429688 -0.597656 1.171875 -0.988281 1.046875 -1.46875 C 0.929688 -1.945312 0.875 -2.546875 0.875 -3.265625 L 0.875 -10.25 C 0.875 -10.320312 0.882812 -10.367188 0.90625 -10.390625 C 0.925781 -10.421875 0.992188 -10.4375 1.109375 -10.4375 C 1.222656 -10.445312 1.375 -10.453125 1.5625 -10.453125 L 1.5625 -3.25 C 1.5625 -2.664062 1.601562 -2.175781 1.6875 -1.78125 C 1.78125 -1.394531 1.972656 -1.082031 2.265625 -0.84375 C 2.566406 -0.613281 3.003906 -0.5 3.578125 -0.5 C 3.929688 -0.5 4.28125 -0.53125 4.625 -0.59375 C 4.96875 -0.664062 5.234375 -0.742188 5.421875 -0.828125 L 5.421875 -10.265625 C 5.421875 -10.328125 5.429688 -10.367188 5.453125 -10.390625 C 5.472656 -10.421875 5.535156 -10.4375 5.640625 -10.4375 C 5.753906 -10.445312 5.90625 -10.453125 6.09375 -10.453125 L 6.09375 -0.359375 C 5.875 -0.222656 5.53125 -0.101562 5.0625 0 C 4.59375 0.101562 4.097656 0.15625 3.578125 0.15625 Z M 3.578125 0.15625 "/></g></g></g><g fill="#160633" fill-opacity="1"><g transform="translate(254.376887, 81.25473)"><g><path d="M 2.640625 -10.453125 C 3.535156 -10.453125 4.179688 -10.203125 4.578125 -9.703125 C 4.984375 -9.203125 5.1875 -8.515625 5.1875 -7.640625 C 5.1875 -6.585938 4.957031 -5.796875 4.5 -5.265625 C 4.039062 -4.742188 3.394531 -4.484375 2.5625 -4.484375 L 1.546875 -4.484375 L 1.546875 -0.171875 C 1.546875 -0.109375 1.535156 -0.0664062 1.515625 -0.046875 C 1.503906 -0.0234375 1.441406 -0.0078125 1.328125 0 C 1.210938 0 1.0625 0 0.875 0 L 0.875 -10.265625 C 0.875 -10.390625 0.9375 -10.453125 1.0625 -10.453125 Z M 2.59375 -5.125 C 3.851562 -5.125 4.484375 -5.984375 4.484375 -7.703125 C 4.484375 -9.117188 3.878906 -9.828125 2.671875 -9.828125 L 1.546875 -9.828125 L 1.546875 -5.125 Z M 2.59375 -5.125 "/></g></g></g><g fill="#160633" fill-opacity="1"><g transform="translate(259.939151, 81.25473)"><g><path d="M 2.640625 -10.453125 C 3.535156 -10.453125 4.179688 -10.203125 4.578125 -9.703125 C 4.984375 -9.203125 5.1875 -8.515625 5.1875 -7.640625 C 5.1875 -6.585938 4.957031 -5.796875 4.5 -5.265625 C 4.039062 -4.742188 3.394531 -4.484375 2.5625 -4.484375 L 1.546875 -4.484375 L 1.546875 -0.171875 C 1.546875 -0.109375 1.535156 -0.0664062 1.515625 -0.046875 C 1.503906 -0.0234375 1.441406 -0.0078125 1.328125 0 C 1.210938 0 1.0625 0 0.875 0 L 0.875 -10.265625 C 0.875 -10.390625 0.9375 -10.453125 1.0625 -10.453125 Z M 2.59375 -5.125 C 3.851562 -5.125 4.484375 -5.984375 4.484375 -7.703125 C 4.484375 -9.117188 3.878906 -9.828125 2.671875 -9.828125 L 1.546875 -9.828125 L 1.546875 -5.125 Z M 2.59375 -5.125 "/></g></g></g><g fill="#160633" fill-opacity="1"><g transform="translate(265.501414, 81.25473)"><g><path d="M 0.875 -10.171875 C 0.875 -10.273438 0.882812 -10.34375 0.90625 -10.375 C 0.925781 -10.40625 0.992188 -10.425781 1.109375 -10.4375 C 1.222656 -10.445312 1.375 -10.453125 1.5625 -10.453125 L 1.5625 -0.625 L 4.6875 -0.625 L 4.6875 -0.171875 C 4.6875 -0.109375 4.671875 -0.0625 4.640625 -0.03125 C 4.609375 -0.0078125 4.554688 0 4.484375 0 L 0.875 0 Z M 0.875 -10.171875 "/></g></g></g><g fill="#160633" fill-opacity="1"><g transform="translate(270.452277, 81.25473)"><g><path d="M 1.578125 -0.625 L 4.671875 -0.625 C 4.671875 -0.332031 4.660156 -0.15625 4.640625 -0.09375 C 4.628906 -0.03125 4.582031 0 4.5 0 L 0.90625 0 L 0.90625 -10.265625 C 0.90625 -10.296875 0.921875 -10.332031 0.953125 -10.375 C 0.984375 -10.425781 1.035156 -10.453125 1.109375 -10.453125 L 4.671875 -10.453125 C 4.671875 -10.160156 4.664062 -9.976562 4.65625 -9.90625 C 4.644531 -9.84375 4.601562 -9.8125 4.53125 -9.8125 L 1.578125 -9.8125 L 1.578125 -6.03125 L 4.34375 -6.03125 C 4.34375 -5.75 4.332031 -5.570312 4.3125 -5.5 C 4.300781 -5.4375 4.257812 -5.40625 4.1875 -5.40625 L 1.578125 -5.40625 Z M 1.578125 -0.625 "/></g></g></g><g fill="#160633" fill-opacity="1"><g transform="translate(275.582085, 81.25473)"><g><path d="M 6.609375 -10.453125 L 6.609375 -0.171875 C 6.609375 -0.109375 6.597656 -0.0664062 6.578125 -0.046875 C 6.554688 -0.0234375 6.488281 -0.0078125 6.375 0 C 6.269531 0 6.125 0 5.9375 0 L 5.953125 -4.5625 L 6.046875 -8.703125 L 4.859375 -4.8125 L 3.984375 -2.1875 C 3.953125 -2.101562 3.894531 -2.0625 3.8125 -2.0625 L 3.484375 -2.0625 L 2.625 -4.8125 L 1.4375 -8.65625 L 1.5 -5.828125 L 1.53125 -4.6875 L 1.546875 -0.171875 C 1.546875 -0.117188 1.535156 -0.078125 1.515625 -0.046875 C 1.492188 -0.0234375 1.425781 -0.0078125 1.3125 0 C 1.207031 0 1.0625 0 0.875 0 L 0.875 -10.265625 C 0.875 -10.390625 0.9375 -10.453125 1.0625 -10.453125 L 1.5 -10.453125 L 3.1875 -4.9375 L 3.75 -3.109375 L 4.265625 -4.875 L 5.9375 -10.265625 C 5.976562 -10.390625 6.039062 -10.453125 6.125 -10.453125 Z M 6.609375 -10.453125 "/></g></g></g><g fill="#160633" fill-opacity="1"><g transform="translate(283.068032, 81.25473)"><g><path d="M 1.578125 -0.625 L 4.671875 -0.625 C 4.671875 -0.332031 4.660156 -0.15625 4.640625 -0.09375 C 4.628906 -0.03125 4.582031 0 4.5 0 L 0.90625 0 L 0.90625 -10.265625 C 0.90625 -10.296875 0.921875 -10.332031 0.953125 -10.375 C 0.984375 -10.425781 1.035156 -10.453125 1.109375 -10.453125 L 4.671875 -10.453125 C 4.671875 -10.160156 4.664062 -9.976562 4.65625 -9.90625 C 4.644531 -9.84375 4.601562 -9.8125 4.53125 -9.8125 L 1.578125 -9.8125 L 1.578125 -6.03125 L 4.34375 -6.03125 C 4.34375 -5.75 4.332031 -5.570312 4.3125 -5.5 C 4.300781 -5.4375 4.257812 -5.40625 4.1875 -5.40625 L 1.578125 -5.40625 Z M 1.578125 -0.625 "/></g></g></g><g fill="#160633" fill-opacity="1"><g transform="translate(288.19784, 81.25473)"><g><path d="M 5.328125 -10.265625 C 5.328125 -10.335938 5.335938 -10.382812 5.359375 -10.40625 C 5.378906 -10.425781 5.441406 -10.4375 5.546875 -10.4375 C 5.660156 -10.445312 5.8125 -10.453125 6 -10.453125 L 6 -0.171875 C 6 -0.0546875 5.929688 0 5.796875 0 L 5.359375 0 L 3.484375 -4.21875 C 3.484375 -4.238281 3.066406 -5.265625 2.234375 -7.296875 L 1.5 -9.09375 L 1.546875 -3.84375 L 1.546875 -0.171875 C 1.546875 -0.109375 1.535156 -0.0664062 1.515625 -0.046875 C 1.503906 -0.0234375 1.441406 -0.0078125 1.328125 0 C 1.210938 0 1.0625 0 0.875 0 L 0.875 -10.265625 C 0.875 -10.390625 0.9375 -10.453125 1.0625 -10.453125 L 1.515625 -10.453125 L 3.34375 -6.296875 C 3.570312 -5.722656 3.867188 -4.988281 4.234375 -4.09375 C 4.609375 -3.207031 4.921875 -2.453125 5.171875 -1.828125 L 5.359375 -1.40625 C 5.335938 -2.832031 5.328125 -4.597656 5.328125 -6.703125 Z M 5.328125 -10.265625 "/></g></g></g><g fill="#160633" fill-opacity="1"><g transform="translate(295.072386, 81.25473)"><g><path d="M 5.359375 -10.453125 L 5.359375 -9.984375 C 5.359375 -9.859375 5.289062 -9.796875 5.15625 -9.796875 L 3.03125 -9.796875 L 3.03125 -0.171875 C 3.03125 -0.109375 3.019531 -0.0664062 3 -0.046875 C 2.976562 -0.0234375 2.910156 -0.0078125 2.796875 0 C 2.691406 0 2.546875 0 2.359375 0 L 2.359375 -9.796875 L 0.09375 -9.796875 L 0.09375 -10.265625 C 0.09375 -10.390625 0.15625 -10.453125 0.28125 -10.453125 Z M 5.359375 -10.453125 "/></g></g></g><path stroke-linecap="butt" transform="matrix(0.746681, 0, 0, 0.746681, 128.706476, 77.571384)" fill="none" stroke-linejoin="miter" d="M 0.000743448 0.500787 L 48.815701 0.500787 " stroke="#160633" stroke-width="1" stroke-opacity="1" stroke-miterlimit="4"/><path stroke-linecap="butt" transform="matrix(0.746681, 0, 0, 0.746681, 310.731936, 77.847212)" fill="none" stroke-linejoin="miter" d="M -0.00196437 0.497586 L 48.818224 0.497586 " stroke="#160633" stroke-width="1" stroke-opacity="1" stroke-miterlimit="4"/></svg>