<svg xmlns="http://www.w3.org/2000/svg" xmlns:xlink="http://www.w3.org/1999/xlink" width="1080" zoomAndPan="magnify" viewBox="0 0 810 809.999993" height="1080" preserveAspectRatio="xMidYMid meet" version="1.0"><path fill="#160633" d="M 19.410156 197.632812 C 88.777344 157.230469 166.019531 213.039062 234.019531 227.511719 C 264.320312 233.960938 297.757812 233.902344 325.640625 218.914062 C 350.902344 205.355469 366.308594 180.929688 386.375 161.433594 C 399.15625 149.015625 414.488281 140.378906 432.691406 139.960938 C 451.160156 139.542969 469.285156 146.105469 485.339844 154.738281 C 515.011719 170.734375 541.316406 195.082031 575.34375 201.511719 C 599.882812 206.152344 633.375 199.835938 644.523438 174.21875 C 648.707031 164.613281 646.597656 150.480469 635.125 147.09375 C 625.75 144.316406 616.734375 152.382812 612.261719 159.800781 C 592.558594 192.554688 647.335938 210.148438 669.289062 216.214844 C 708.070312 226.960938 749.289062 226.789062 788.109375 216.40625 C 790.390625 215.796875 795.621094 208.585938 792.691406 209.367188 C 761.195312 217.792969 728.328125 219.410156 696.183594 213.816406 C 680.375 211.058594 664.816406 206.609375 650 200.464844 C 637.257812 195.175781 620.480469 187.589844 616.199219 173.019531 C 613.957031 165.390625 617.019531 152.761719 627.101562 153.730469 C 634.25 154.417969 639.007812 161.855469 639.539062 168.492188 C 641.308594 190.25 610.589844 196.507812 594.421875 195.882812 C 562.542969 194.644531 536.410156 175.472656 510.523438 158.980469 C 486.726562 143.839844 459.339844 129.441406 430.140625 133.476562 C 406.917969 136.6875 389.132812 152.6875 373.992188 169.421875 C 353.925781 191.621094 336.332031 213.722656 305.785156 221.101562 C 275.789062 228.347656 244.445312 222.929688 215.492188 213.816406 C 153.488281 194.300781 84.25 155.140625 20.722656 192.132812 C 18.34375 193.523438 14.160156 200.675781 19.410156 197.613281 Z M 19.410156 197.632812 " fill-opacity="1" fill-rule="nonzero"/></svg>